<mxfile host="app.diagrams.net" modified="2020-11-11T11:08:59.623Z" agent="5.0 (Windows NT 10.0; Win64; x64) AppleWebKit/537.36 (KHTML, like Gecko) Chrome/86.0.4240.183 Safari/537.36" etag="hkEHkfbNsurRwub8NcsD" version="13.9.2" type="github">
  <diagram id="vWUNiSj-AlJxfywqzo02" name="Page-1">
    <mxGraphModel dx="1678" dy="3351" grid="1" gridSize="10" guides="1" tooltips="1" connect="1" arrows="1" fold="1" page="1" pageScale="1" pageWidth="1654" pageHeight="2336" math="0" shadow="0">
      <root>
        <mxCell id="0" />
        <mxCell id="1" parent="0" />
        <mxCell id="Usiv628oRZ8MBXYW6SLu-2" style="edgeStyle=orthogonalEdgeStyle;rounded=0;orthogonalLoop=1;jettySize=auto;html=1;dashed=1;endArrow=open;endFill=0;startSize=12;endSize=12;" edge="1" parent="1" source="Usiv628oRZ8MBXYW6SLu-15" target="kwmT5_W4P3ap97EktbIp-77">
          <mxGeometry relative="1" as="geometry">
            <mxPoint x="510" y="-2110" as="targetPoint" />
            <mxPoint x="730" y="-2000" as="sourcePoint" />
            <Array as="points">
              <mxPoint x="730" y="-2000" />
              <mxPoint x="505" y="-2000" />
            </Array>
          </mxGeometry>
        </mxCell>
        <mxCell id="Usiv628oRZ8MBXYW6SLu-22" style="edgeStyle=orthogonalEdgeStyle;rounded=0;orthogonalLoop=1;jettySize=auto;html=1;startArrow=none;startFill=0;startSize=12;endArrow=diamondThin;endFill=0;endSize=12;" edge="1" parent="1" source="Usiv628oRZ8MBXYW6SLu-23" target="Usiv628oRZ8MBXYW6SLu-15">
          <mxGeometry relative="1" as="geometry" />
        </mxCell>
        <mxCell id="kwmT5_W4P3ap97EktbIp-1" value="Employee" style="swimlane;fontStyle=1;align=center;verticalAlign=top;childLayout=stackLayout;horizontal=1;startSize=26;horizontalStack=0;resizeParent=1;resizeParentMax=0;resizeLast=0;collapsible=1;marginBottom=0;" parent="1" vertex="1">
          <mxGeometry x="617" y="-1650" width="260" height="346" as="geometry" />
        </mxCell>
        <mxCell id="kwmT5_W4P3ap97EktbIp-2" value="- currentRoleId : int" style="text;strokeColor=none;fillColor=none;align=left;verticalAlign=top;spacingLeft=4;spacingRight=4;overflow=hidden;rotatable=0;points=[[0,0.5],[1,0.5]];portConstraint=eastwest;" parent="kwmT5_W4P3ap97EktbIp-1" vertex="1">
          <mxGeometry y="26" width="260" height="26" as="geometry" />
        </mxCell>
        <mxCell id="kwmT5_W4P3ap97EktbIp-3" value="- desiredRoleId : int" style="text;strokeColor=none;fillColor=none;align=left;verticalAlign=top;spacingLeft=4;spacingRight=4;overflow=hidden;rotatable=0;points=[[0,0.5],[1,0.5]];portConstraint=eastwest;" parent="kwmT5_W4P3ap97EktbIp-1" vertex="1">
          <mxGeometry y="52" width="260" height="26" as="geometry" />
        </mxCell>
        <mxCell id="kwmT5_W4P3ap97EktbIp-4" value="- requests : Request[*]" style="text;strokeColor=none;fillColor=none;align=left;verticalAlign=top;spacingLeft=4;spacingRight=4;overflow=hidden;rotatable=0;points=[[0,0.5],[1,0.5]];portConstraint=eastwest;" parent="kwmT5_W4P3ap97EktbIp-1" vertex="1">
          <mxGeometry y="78" width="260" height="26" as="geometry" />
        </mxCell>
        <mxCell id="kwmT5_W4P3ap97EktbIp-5" value="" style="line;strokeWidth=1;fillColor=none;align=left;verticalAlign=middle;spacingTop=-1;spacingLeft=3;spacingRight=3;rotatable=0;labelPosition=right;points=[];portConstraint=eastwest;" parent="kwmT5_W4P3ap97EktbIp-1" vertex="1">
          <mxGeometry y="104" width="260" height="8" as="geometry" />
        </mxCell>
        <mxCell id="kwmT5_W4P3ap97EktbIp-6" value="+ Emoployee()" style="text;strokeColor=none;fillColor=none;align=left;verticalAlign=top;spacingLeft=4;spacingRight=4;overflow=hidden;rotatable=0;points=[[0,0.5],[1,0.5]];portConstraint=eastwest;" parent="kwmT5_W4P3ap97EktbIp-1" vertex="1">
          <mxGeometry y="112" width="260" height="26" as="geometry" />
        </mxCell>
        <mxCell id="kwmT5_W4P3ap97EktbIp-7" value="+ getCurrentRole) : String" style="text;strokeColor=none;fillColor=none;align=left;verticalAlign=top;spacingLeft=4;spacingRight=4;overflow=hidden;rotatable=0;points=[[0,0.5],[1,0.5]];portConstraint=eastwest;" parent="kwmT5_W4P3ap97EktbIp-1" vertex="1">
          <mxGeometry y="138" width="260" height="26" as="geometry" />
        </mxCell>
        <mxCell id="kwmT5_W4P3ap97EktbIp-8" value="+ setCurrentRole) : String" style="text;strokeColor=none;fillColor=none;align=left;verticalAlign=top;spacingLeft=4;spacingRight=4;overflow=hidden;rotatable=0;points=[[0,0.5],[1,0.5]];portConstraint=eastwest;" parent="kwmT5_W4P3ap97EktbIp-1" vertex="1">
          <mxGeometry y="164" width="260" height="26" as="geometry" />
        </mxCell>
        <mxCell id="kwmT5_W4P3ap97EktbIp-9" value="+ getDesiredRole) : String" style="text;strokeColor=none;fillColor=none;align=left;verticalAlign=top;spacingLeft=4;spacingRight=4;overflow=hidden;rotatable=0;points=[[0,0.5],[1,0.5]];portConstraint=eastwest;" parent="kwmT5_W4P3ap97EktbIp-1" vertex="1">
          <mxGeometry y="190" width="260" height="26" as="geometry" />
        </mxCell>
        <mxCell id="kwmT5_W4P3ap97EktbIp-10" value="+ settDesiredRole) : String" style="text;strokeColor=none;fillColor=none;align=left;verticalAlign=top;spacingLeft=4;spacingRight=4;overflow=hidden;rotatable=0;points=[[0,0.5],[1,0.5]];portConstraint=eastwest;" parent="kwmT5_W4P3ap97EktbIp-1" vertex="1">
          <mxGeometry y="216" width="260" height="26" as="geometry" />
        </mxCell>
        <mxCell id="kwmT5_W4P3ap97EktbIp-11" value="+ requestSkillUpdate() : Request" style="text;strokeColor=none;fillColor=none;align=left;verticalAlign=top;spacingLeft=4;spacingRight=4;overflow=hidden;rotatable=0;points=[[0,0.5],[1,0.5]];portConstraint=eastwest;" parent="kwmT5_W4P3ap97EktbIp-1" vertex="1">
          <mxGeometry y="242" width="260" height="26" as="geometry" />
        </mxCell>
        <mxCell id="kwmT5_W4P3ap97EktbIp-12" value="+ abbandonRequest() : Request[*]" style="text;strokeColor=none;fillColor=none;align=left;verticalAlign=top;spacingLeft=4;spacingRight=4;overflow=hidden;rotatable=0;points=[[0,0.5],[1,0.5]];portConstraint=eastwest;" parent="kwmT5_W4P3ap97EktbIp-1" vertex="1">
          <mxGeometry y="268" width="260" height="26" as="geometry" />
        </mxCell>
        <mxCell id="kwmT5_W4P3ap97EktbIp-46" value="+ addLearning()" style="text;strokeColor=none;fillColor=none;align=left;verticalAlign=top;spacingLeft=4;spacingRight=4;overflow=hidden;rotatable=0;points=[[0,0.5],[1,0.5]];portConstraint=eastwest;" parent="kwmT5_W4P3ap97EktbIp-1" vertex="1">
          <mxGeometry y="294" width="260" height="26" as="geometry" />
        </mxCell>
        <mxCell id="kwmT5_W4P3ap97EktbIp-13" value="+ selectDesiredRole(desiredRole : String)" style="text;strokeColor=none;fillColor=none;align=left;verticalAlign=top;spacingLeft=4;spacingRight=4;overflow=hidden;rotatable=0;points=[[0,0.5],[1,0.5]];portConstraint=eastwest;" parent="kwmT5_W4P3ap97EktbIp-1" vertex="1">
          <mxGeometry y="320" width="260" height="26" as="geometry" />
        </mxCell>
        <mxCell id="kwmT5_W4P3ap97EktbIp-14" value="Role" style="swimlane;fontStyle=1;align=center;verticalAlign=top;childLayout=stackLayout;horizontal=1;startSize=26;horizontalStack=0;resizeParent=1;resizeParentMax=0;resizeLast=0;collapsible=1;marginBottom=0;" parent="1" vertex="1">
          <mxGeometry x="140" y="-1690" width="230" height="294" as="geometry" />
        </mxCell>
        <mxCell id="kwmT5_W4P3ap97EktbIp-15" value="- roleId : int" style="text;strokeColor=none;fillColor=none;align=left;verticalAlign=top;spacingLeft=4;spacingRight=4;overflow=hidden;rotatable=0;points=[[0,0.5],[1,0.5]];portConstraint=eastwest;" parent="kwmT5_W4P3ap97EktbIp-14" vertex="1">
          <mxGeometry y="26" width="230" height="26" as="geometry" />
        </mxCell>
        <mxCell id="Usiv628oRZ8MBXYW6SLu-12" value="- roleName : String" style="text;strokeColor=none;fillColor=none;align=left;verticalAlign=top;spacingLeft=4;spacingRight=4;overflow=hidden;rotatable=0;points=[[0,0.5],[1,0.5]];portConstraint=eastwest;" vertex="1" parent="kwmT5_W4P3ap97EktbIp-14">
          <mxGeometry y="52" width="230" height="26" as="geometry" />
        </mxCell>
        <mxCell id="kwmT5_W4P3ap97EktbIp-16" value="- requiredSkills : RoleSkill[*]" style="text;strokeColor=none;fillColor=none;align=left;verticalAlign=top;spacingLeft=4;spacingRight=4;overflow=hidden;rotatable=0;points=[[0,0.5],[1,0.5]];portConstraint=eastwest;" parent="kwmT5_W4P3ap97EktbIp-14" vertex="1">
          <mxGeometry y="78" width="230" height="26" as="geometry" />
        </mxCell>
        <mxCell id="kwmT5_W4P3ap97EktbIp-17" value="" style="line;strokeWidth=1;fillColor=none;align=left;verticalAlign=middle;spacingTop=-1;spacingLeft=3;spacingRight=3;rotatable=0;labelPosition=right;points=[];portConstraint=eastwest;" parent="kwmT5_W4P3ap97EktbIp-14" vertex="1">
          <mxGeometry y="104" width="230" height="8" as="geometry" />
        </mxCell>
        <mxCell id="kwmT5_W4P3ap97EktbIp-18" value="+ Role(roleId, roleName, requiredSkills)" style="text;strokeColor=none;fillColor=none;align=left;verticalAlign=top;spacingLeft=4;spacingRight=4;overflow=hidden;rotatable=0;points=[[0,0.5],[1,0.5]];portConstraint=eastwest;" parent="kwmT5_W4P3ap97EktbIp-14" vertex="1">
          <mxGeometry y="112" width="230" height="26" as="geometry" />
        </mxCell>
        <mxCell id="kwmT5_W4P3ap97EktbIp-19" value="+ getRoleId() : int" style="text;strokeColor=none;fillColor=none;align=left;verticalAlign=top;spacingLeft=4;spacingRight=4;overflow=hidden;rotatable=0;points=[[0,0.5],[1,0.5]];portConstraint=eastwest;" parent="kwmT5_W4P3ap97EktbIp-14" vertex="1">
          <mxGeometry y="138" width="230" height="26" as="geometry" />
        </mxCell>
        <mxCell id="Usiv628oRZ8MBXYW6SLu-13" value="+ getRoleName() : String" style="text;strokeColor=none;fillColor=none;align=left;verticalAlign=top;spacingLeft=4;spacingRight=4;overflow=hidden;rotatable=0;points=[[0,0.5],[1,0.5]];portConstraint=eastwest;" vertex="1" parent="kwmT5_W4P3ap97EktbIp-14">
          <mxGeometry y="164" width="230" height="26" as="geometry" />
        </mxCell>
        <mxCell id="kwmT5_W4P3ap97EktbIp-20" value="+ getRequiredSkills() : RoleSkill[*]" style="text;strokeColor=none;fillColor=none;align=left;verticalAlign=top;spacingLeft=4;spacingRight=4;overflow=hidden;rotatable=0;points=[[0,0.5],[1,0.5]];portConstraint=eastwest;" parent="kwmT5_W4P3ap97EktbIp-14" vertex="1">
          <mxGeometry y="190" width="230" height="26" as="geometry" />
        </mxCell>
        <mxCell id="kwmT5_W4P3ap97EktbIp-21" value="+ addRole()" style="text;strokeColor=none;fillColor=none;align=left;verticalAlign=top;spacingLeft=4;spacingRight=4;overflow=hidden;rotatable=0;points=[[0,0.5],[1,0.5]];portConstraint=eastwest;" parent="kwmT5_W4P3ap97EktbIp-14" vertex="1">
          <mxGeometry y="216" width="230" height="26" as="geometry" />
        </mxCell>
        <mxCell id="kwmT5_W4P3ap97EktbIp-22" value="+ editRole(roleId: int)" style="text;strokeColor=none;fillColor=none;align=left;verticalAlign=top;spacingLeft=4;spacingRight=4;overflow=hidden;rotatable=0;points=[[0,0.5],[1,0.5]];portConstraint=eastwest;" parent="kwmT5_W4P3ap97EktbIp-14" vertex="1">
          <mxGeometry y="242" width="230" height="26" as="geometry" />
        </mxCell>
        <mxCell id="kwmT5_W4P3ap97EktbIp-23" value="+ deleteRole(roleId : int)" style="text;strokeColor=none;fillColor=none;align=left;verticalAlign=top;spacingLeft=4;spacingRight=4;overflow=hidden;rotatable=0;points=[[0,0.5],[1,0.5]];portConstraint=eastwest;" parent="kwmT5_W4P3ap97EktbIp-14" vertex="1">
          <mxGeometry y="268" width="230" height="26" as="geometry" />
        </mxCell>
        <mxCell id="Usiv628oRZ8MBXYW6SLu-6" style="edgeStyle=orthogonalEdgeStyle;rounded=0;orthogonalLoop=1;jettySize=auto;html=1;startSize=12;endArrow=diamondThin;endFill=1;endSize=12;" edge="1" parent="1" source="kwmT5_W4P3ap97EktbIp-24" target="kwmT5_W4P3ap97EktbIp-1">
          <mxGeometry relative="1" as="geometry" />
        </mxCell>
        <mxCell id="kwmT5_W4P3ap97EktbIp-24" value="Skill" style="swimlane;fontStyle=1;align=center;verticalAlign=top;childLayout=stackLayout;horizontal=1;startSize=26;horizontalStack=0;resizeParent=1;resizeParentMax=0;resizeLast=0;collapsible=1;marginBottom=0;" parent="1" vertex="1">
          <mxGeometry x="667" y="-1200" width="160" height="294" as="geometry" />
        </mxCell>
        <mxCell id="kwmT5_W4P3ap97EktbIp-25" value="- skillId : int" style="text;strokeColor=none;fillColor=none;align=left;verticalAlign=top;spacingLeft=4;spacingRight=4;overflow=hidden;rotatable=0;points=[[0,0.5],[1,0.5]];portConstraint=eastwest;" parent="kwmT5_W4P3ap97EktbIp-24" vertex="1">
          <mxGeometry y="26" width="160" height="26" as="geometry" />
        </mxCell>
        <mxCell id="Usiv628oRZ8MBXYW6SLu-8" value="- skillName : String" style="text;strokeColor=none;fillColor=none;align=left;verticalAlign=top;spacingLeft=4;spacingRight=4;overflow=hidden;rotatable=0;points=[[0,0.5],[1,0.5]];portConstraint=eastwest;" vertex="1" parent="kwmT5_W4P3ap97EktbIp-24">
          <mxGeometry y="52" width="160" height="26" as="geometry" />
        </mxCell>
        <mxCell id="kwmT5_W4P3ap97EktbIp-26" value="- skillLevelId : int" style="text;strokeColor=none;fillColor=none;align=left;verticalAlign=top;spacingLeft=4;spacingRight=4;overflow=hidden;rotatable=0;points=[[0,0.5],[1,0.5]];portConstraint=eastwest;" parent="kwmT5_W4P3ap97EktbIp-24" vertex="1">
          <mxGeometry y="78" width="160" height="26" as="geometry" />
        </mxCell>
        <mxCell id="kwmT5_W4P3ap97EktbIp-27" value="" style="line;strokeWidth=1;fillColor=none;align=left;verticalAlign=middle;spacingTop=-1;spacingLeft=3;spacingRight=3;rotatable=0;labelPosition=right;points=[];portConstraint=eastwest;" parent="kwmT5_W4P3ap97EktbIp-24" vertex="1">
          <mxGeometry y="104" width="160" height="8" as="geometry" />
        </mxCell>
        <mxCell id="kwmT5_W4P3ap97EktbIp-28" value="+ Skill()" style="text;strokeColor=none;fillColor=none;align=left;verticalAlign=top;spacingLeft=4;spacingRight=4;overflow=hidden;rotatable=0;points=[[0,0.5],[1,0.5]];portConstraint=eastwest;" parent="kwmT5_W4P3ap97EktbIp-24" vertex="1">
          <mxGeometry y="112" width="160" height="26" as="geometry" />
        </mxCell>
        <mxCell id="Usiv628oRZ8MBXYW6SLu-9" value="+ getSkillId() : int" style="text;strokeColor=none;fillColor=none;align=left;verticalAlign=top;spacingLeft=4;spacingRight=4;overflow=hidden;rotatable=0;points=[[0,0.5],[1,0.5]];portConstraint=eastwest;" vertex="1" parent="kwmT5_W4P3ap97EktbIp-24">
          <mxGeometry y="138" width="160" height="26" as="geometry" />
        </mxCell>
        <mxCell id="kwmT5_W4P3ap97EktbIp-29" value="+ getSkillLevelId() : int" style="text;strokeColor=none;fillColor=none;align=left;verticalAlign=top;spacingLeft=4;spacingRight=4;overflow=hidden;rotatable=0;points=[[0,0.5],[1,0.5]];portConstraint=eastwest;" parent="kwmT5_W4P3ap97EktbIp-24" vertex="1">
          <mxGeometry y="164" width="160" height="26" as="geometry" />
        </mxCell>
        <mxCell id="kwmT5_W4P3ap97EktbIp-30" value="+ getSkillName : String" style="text;strokeColor=none;fillColor=none;align=left;verticalAlign=top;spacingLeft=4;spacingRight=4;overflow=hidden;rotatable=0;points=[[0,0.5],[1,0.5]];portConstraint=eastwest;" parent="kwmT5_W4P3ap97EktbIp-24" vertex="1">
          <mxGeometry y="190" width="160" height="26" as="geometry" />
        </mxCell>
        <mxCell id="kwmT5_W4P3ap97EktbIp-31" value="+ addSkill()" style="text;strokeColor=none;fillColor=none;align=left;verticalAlign=top;spacingLeft=4;spacingRight=4;overflow=hidden;rotatable=0;points=[[0,0.5],[1,0.5]];portConstraint=eastwest;" parent="kwmT5_W4P3ap97EktbIp-24" vertex="1">
          <mxGeometry y="216" width="160" height="26" as="geometry" />
        </mxCell>
        <mxCell id="kwmT5_W4P3ap97EktbIp-32" value="+ editSkill(skillId :int)" style="text;strokeColor=none;fillColor=none;align=left;verticalAlign=top;spacingLeft=4;spacingRight=4;overflow=hidden;rotatable=0;points=[[0,0.5],[1,0.5]];portConstraint=eastwest;" parent="kwmT5_W4P3ap97EktbIp-24" vertex="1">
          <mxGeometry y="242" width="160" height="26" as="geometry" />
        </mxCell>
        <mxCell id="kwmT5_W4P3ap97EktbIp-33" value="+ deleteSkill(skillId : int)" style="text;strokeColor=none;fillColor=none;align=left;verticalAlign=top;spacingLeft=4;spacingRight=4;overflow=hidden;rotatable=0;points=[[0,0.5],[1,0.5]];portConstraint=eastwest;" parent="kwmT5_W4P3ap97EktbIp-24" vertex="1">
          <mxGeometry y="268" width="160" height="26" as="geometry" />
        </mxCell>
        <mxCell id="Usiv628oRZ8MBXYW6SLu-7" style="edgeStyle=orthogonalEdgeStyle;rounded=0;orthogonalLoop=1;jettySize=auto;html=1;startSize=12;endArrow=none;endFill=0;endSize=12;startArrow=diamondThin;startFill=1;" edge="1" parent="1" source="kwmT5_W4P3ap97EktbIp-34" target="kwmT5_W4P3ap97EktbIp-24">
          <mxGeometry relative="1" as="geometry">
            <Array as="points">
              <mxPoint x="520" y="-1060" />
            </Array>
          </mxGeometry>
        </mxCell>
        <mxCell id="Usiv628oRZ8MBXYW6SLu-11" style="edgeStyle=orthogonalEdgeStyle;rounded=0;orthogonalLoop=1;jettySize=auto;html=1;startSize=12;endArrow=none;endFill=0;endSize=12;startArrow=diamondThin;startFill=1;" edge="1" parent="1" source="kwmT5_W4P3ap97EktbIp-34" target="kwmT5_W4P3ap97EktbIp-47">
          <mxGeometry relative="1" as="geometry">
            <Array as="points">
              <mxPoint x="520" y="-1060" />
            </Array>
          </mxGeometry>
        </mxCell>
        <mxCell id="kwmT5_W4P3ap97EktbIp-34" value="SkillLevel" style="swimlane;fontStyle=1;align=center;verticalAlign=top;childLayout=stackLayout;horizontal=1;startSize=26;horizontalStack=0;resizeParent=1;resizeParentMax=0;resizeLast=0;collapsible=1;marginBottom=0;" parent="1" vertex="1">
          <mxGeometry x="360" y="-870" width="320" height="294" as="geometry" />
        </mxCell>
        <mxCell id="kwmT5_W4P3ap97EktbIp-35" value="- skillLevelId : int" style="text;strokeColor=none;fillColor=none;align=left;verticalAlign=top;spacingLeft=4;spacingRight=4;overflow=hidden;rotatable=0;points=[[0,0.5],[1,0.5]];portConstraint=eastwest;" parent="kwmT5_W4P3ap97EktbIp-34" vertex="1">
          <mxGeometry y="26" width="320" height="26" as="geometry" />
        </mxCell>
        <mxCell id="kwmT5_W4P3ap97EktbIp-38" value="- skillLevelName : String" style="text;strokeColor=none;fillColor=none;align=left;verticalAlign=top;spacingLeft=4;spacingRight=4;overflow=hidden;rotatable=0;points=[[0,0.5],[1,0.5]];portConstraint=eastwest;" parent="kwmT5_W4P3ap97EktbIp-34" vertex="1">
          <mxGeometry y="52" width="320" height="26" as="geometry" />
        </mxCell>
        <mxCell id="kwmT5_W4P3ap97EktbIp-39" value="- skillLevelDescription : String" style="text;strokeColor=none;fillColor=none;align=left;verticalAlign=top;spacingLeft=4;spacingRight=4;overflow=hidden;rotatable=0;points=[[0,0.5],[1,0.5]];portConstraint=eastwest;" parent="kwmT5_W4P3ap97EktbIp-34" vertex="1">
          <mxGeometry y="78" width="320" height="26" as="geometry" />
        </mxCell>
        <mxCell id="kwmT5_W4P3ap97EktbIp-36" value="" style="line;strokeWidth=1;fillColor=none;align=left;verticalAlign=middle;spacingTop=-1;spacingLeft=3;spacingRight=3;rotatable=0;labelPosition=right;points=[];portConstraint=eastwest;" parent="kwmT5_W4P3ap97EktbIp-34" vertex="1">
          <mxGeometry y="104" width="320" height="8" as="geometry" />
        </mxCell>
        <mxCell id="kwmT5_W4P3ap97EktbIp-37" value="+ SkillLevel()" style="text;strokeColor=none;fillColor=none;align=left;verticalAlign=top;spacingLeft=4;spacingRight=4;overflow=hidden;rotatable=0;points=[[0,0.5],[1,0.5]];portConstraint=eastwest;" parent="kwmT5_W4P3ap97EktbIp-34" vertex="1">
          <mxGeometry y="112" width="320" height="26" as="geometry" />
        </mxCell>
        <mxCell id="kwmT5_W4P3ap97EktbIp-40" value="+ getSkillLevelId() : int" style="text;strokeColor=none;fillColor=none;align=left;verticalAlign=top;spacingLeft=4;spacingRight=4;overflow=hidden;rotatable=0;points=[[0,0.5],[1,0.5]];portConstraint=eastwest;" parent="kwmT5_W4P3ap97EktbIp-34" vertex="1">
          <mxGeometry y="138" width="320" height="26" as="geometry" />
        </mxCell>
        <mxCell id="kwmT5_W4P3ap97EktbIp-41" value="+ setSkillLevelId(skillLevelId :int)" style="text;strokeColor=none;fillColor=none;align=left;verticalAlign=top;spacingLeft=4;spacingRight=4;overflow=hidden;rotatable=0;points=[[0,0.5],[1,0.5]];portConstraint=eastwest;" parent="kwmT5_W4P3ap97EktbIp-34" vertex="1">
          <mxGeometry y="164" width="320" height="26" as="geometry" />
        </mxCell>
        <mxCell id="kwmT5_W4P3ap97EktbIp-42" value="+ getSkillLevelName() : String" style="text;strokeColor=none;fillColor=none;align=left;verticalAlign=top;spacingLeft=4;spacingRight=4;overflow=hidden;rotatable=0;points=[[0,0.5],[1,0.5]];portConstraint=eastwest;" parent="kwmT5_W4P3ap97EktbIp-34" vertex="1">
          <mxGeometry y="190" width="320" height="26" as="geometry" />
        </mxCell>
        <mxCell id="kwmT5_W4P3ap97EktbIp-43" value="+ setSkillLevelName(skillLevelName : String)" style="text;strokeColor=none;fillColor=none;align=left;verticalAlign=top;spacingLeft=4;spacingRight=4;overflow=hidden;rotatable=0;points=[[0,0.5],[1,0.5]];portConstraint=eastwest;" parent="kwmT5_W4P3ap97EktbIp-34" vertex="1">
          <mxGeometry y="216" width="320" height="26" as="geometry" />
        </mxCell>
        <mxCell id="kwmT5_W4P3ap97EktbIp-44" value="+ setSkillLevelDescription(skillLevelDescription : String)" style="text;strokeColor=none;fillColor=none;align=left;verticalAlign=top;spacingLeft=4;spacingRight=4;overflow=hidden;rotatable=0;points=[[0,0.5],[1,0.5]];portConstraint=eastwest;" parent="kwmT5_W4P3ap97EktbIp-34" vertex="1">
          <mxGeometry y="242" width="320" height="26" as="geometry" />
        </mxCell>
        <mxCell id="kwmT5_W4P3ap97EktbIp-45" value="+ getSkillLevelDescription() :String" style="text;strokeColor=none;fillColor=none;align=left;verticalAlign=top;spacingLeft=4;spacingRight=4;overflow=hidden;rotatable=0;points=[[0,0.5],[1,0.5]];portConstraint=eastwest;" parent="kwmT5_W4P3ap97EktbIp-34" vertex="1">
          <mxGeometry y="268" width="320" height="26" as="geometry" />
        </mxCell>
        <mxCell id="kwmT5_W4P3ap97EktbIp-47" value="RoleSkill" style="swimlane;fontStyle=1;align=center;verticalAlign=top;childLayout=stackLayout;horizontal=1;startSize=26;horizontalStack=0;resizeParent=1;resizeParentMax=0;resizeLast=0;collapsible=1;marginBottom=0;" parent="1" vertex="1">
          <mxGeometry x="40" y="-1260" width="320" height="320" as="geometry" />
        </mxCell>
        <mxCell id="kwmT5_W4P3ap97EktbIp-48" value="- roleSkillId : int" style="text;strokeColor=none;fillColor=none;align=left;verticalAlign=top;spacingLeft=4;spacingRight=4;overflow=hidden;rotatable=0;points=[[0,0.5],[1,0.5]];portConstraint=eastwest;" parent="kwmT5_W4P3ap97EktbIp-47" vertex="1">
          <mxGeometry y="26" width="320" height="26" as="geometry" />
        </mxCell>
        <mxCell id="kwmT5_W4P3ap97EktbIp-51" value="- roleSkillName : String" style="text;strokeColor=none;fillColor=none;align=left;verticalAlign=top;spacingLeft=4;spacingRight=4;overflow=hidden;rotatable=0;points=[[0,0.5],[1,0.5]];portConstraint=eastwest;" parent="kwmT5_W4P3ap97EktbIp-47" vertex="1">
          <mxGeometry y="52" width="320" height="26" as="geometry" />
        </mxCell>
        <mxCell id="kwmT5_W4P3ap97EktbIp-52" value="- roleSkillDescription : String" style="text;strokeColor=none;fillColor=none;align=left;verticalAlign=top;spacingLeft=4;spacingRight=4;overflow=hidden;rotatable=0;points=[[0,0.5],[1,0.5]];portConstraint=eastwest;" parent="kwmT5_W4P3ap97EktbIp-47" vertex="1">
          <mxGeometry y="78" width="320" height="26" as="geometry" />
        </mxCell>
        <mxCell id="Usiv628oRZ8MBXYW6SLu-10" value="- skillLevelId: int" style="text;strokeColor=none;fillColor=none;align=left;verticalAlign=top;spacingLeft=4;spacingRight=4;overflow=hidden;rotatable=0;points=[[0,0.5],[1,0.5]];portConstraint=eastwest;" vertex="1" parent="kwmT5_W4P3ap97EktbIp-47">
          <mxGeometry y="104" width="320" height="26" as="geometry" />
        </mxCell>
        <mxCell id="kwmT5_W4P3ap97EktbIp-49" value="" style="line;strokeWidth=1;fillColor=none;align=left;verticalAlign=middle;spacingTop=-1;spacingLeft=3;spacingRight=3;rotatable=0;labelPosition=right;points=[];portConstraint=eastwest;" parent="kwmT5_W4P3ap97EktbIp-47" vertex="1">
          <mxGeometry y="130" width="320" height="8" as="geometry" />
        </mxCell>
        <mxCell id="kwmT5_W4P3ap97EktbIp-50" value="+ RoleSkill()" style="text;strokeColor=none;fillColor=none;align=left;verticalAlign=top;spacingLeft=4;spacingRight=4;overflow=hidden;rotatable=0;points=[[0,0.5],[1,0.5]];portConstraint=eastwest;" parent="kwmT5_W4P3ap97EktbIp-47" vertex="1">
          <mxGeometry y="138" width="320" height="26" as="geometry" />
        </mxCell>
        <mxCell id="kwmT5_W4P3ap97EktbIp-53" value="+ getRoleSkillId() : int" style="text;strokeColor=none;fillColor=none;align=left;verticalAlign=top;spacingLeft=4;spacingRight=4;overflow=hidden;rotatable=0;points=[[0,0.5],[1,0.5]];portConstraint=eastwest;" parent="kwmT5_W4P3ap97EktbIp-47" vertex="1">
          <mxGeometry y="164" width="320" height="26" as="geometry" />
        </mxCell>
        <mxCell id="kwmT5_W4P3ap97EktbIp-55" value="+ getRoleSkillName() : String" style="text;strokeColor=none;fillColor=none;align=left;verticalAlign=top;spacingLeft=4;spacingRight=4;overflow=hidden;rotatable=0;points=[[0,0.5],[1,0.5]];portConstraint=eastwest;" parent="kwmT5_W4P3ap97EktbIp-47" vertex="1">
          <mxGeometry y="190" width="320" height="26" as="geometry" />
        </mxCell>
        <mxCell id="kwmT5_W4P3ap97EktbIp-56" value="+ setRoleSkillName(roleSkillName : String)" style="text;strokeColor=none;fillColor=none;align=left;verticalAlign=top;spacingLeft=4;spacingRight=4;overflow=hidden;rotatable=0;points=[[0,0.5],[1,0.5]];portConstraint=eastwest;" parent="kwmT5_W4P3ap97EktbIp-47" vertex="1">
          <mxGeometry y="216" width="320" height="26" as="geometry" />
        </mxCell>
        <mxCell id="kwmT5_W4P3ap97EktbIp-54" value="+ setRoleSkillId(roleSkillId : int) " style="text;strokeColor=none;fillColor=none;align=left;verticalAlign=top;spacingLeft=4;spacingRight=4;overflow=hidden;rotatable=0;points=[[0,0.5],[1,0.5]];portConstraint=eastwest;" parent="kwmT5_W4P3ap97EktbIp-47" vertex="1">
          <mxGeometry y="242" width="320" height="26" as="geometry" />
        </mxCell>
        <mxCell id="kwmT5_W4P3ap97EktbIp-58" value="+ setRoleSkillDescription(roleSkillDescription : String)" style="text;strokeColor=none;fillColor=none;align=left;verticalAlign=top;spacingLeft=4;spacingRight=4;overflow=hidden;rotatable=0;points=[[0,0.5],[1,0.5]];portConstraint=eastwest;" parent="kwmT5_W4P3ap97EktbIp-47" vertex="1">
          <mxGeometry y="268" width="320" height="26" as="geometry" />
        </mxCell>
        <mxCell id="kwmT5_W4P3ap97EktbIp-57" value="+ getRoleSkillDescription() : String" style="text;strokeColor=none;fillColor=none;align=left;verticalAlign=top;spacingLeft=4;spacingRight=4;overflow=hidden;rotatable=0;points=[[0,0.5],[1,0.5]];portConstraint=eastwest;" parent="kwmT5_W4P3ap97EktbIp-47" vertex="1">
          <mxGeometry y="294" width="320" height="26" as="geometry" />
        </mxCell>
        <mxCell id="kwmT5_W4P3ap97EktbIp-106" style="edgeStyle=orthogonalEdgeStyle;rounded=0;orthogonalLoop=1;jettySize=auto;html=1;entryX=0.5;entryY=0;entryDx=0;entryDy=0;startArrow=diamondThin;startFill=0;startSize=12;endArrow=none;endFill=0;endSize=12;" parent="1" source="kwmT5_W4P3ap97EktbIp-59" target="kwmT5_W4P3ap97EktbIp-14" edge="1">
          <mxGeometry relative="1" as="geometry" />
        </mxCell>
        <mxCell id="kwmT5_W4P3ap97EktbIp-59" value="RoleController" style="swimlane;fontStyle=1;align=center;verticalAlign=top;childLayout=stackLayout;horizontal=1;startSize=26;horizontalStack=0;resizeParent=1;resizeParentMax=0;resizeLast=0;collapsible=1;marginBottom=0;" parent="1" vertex="1">
          <mxGeometry x="140" y="-1970" width="230" height="164" as="geometry" />
        </mxCell>
        <mxCell id="kwmT5_W4P3ap97EktbIp-60" value="- service : Service" style="text;strokeColor=none;fillColor=none;align=left;verticalAlign=top;spacingLeft=4;spacingRight=4;overflow=hidden;rotatable=0;points=[[0,0.5],[1,0.5]];portConstraint=eastwest;" parent="kwmT5_W4P3ap97EktbIp-59" vertex="1">
          <mxGeometry y="26" width="230" height="26" as="geometry" />
        </mxCell>
        <mxCell id="kwmT5_W4P3ap97EktbIp-61" value="" style="line;strokeWidth=1;fillColor=none;align=left;verticalAlign=middle;spacingTop=-1;spacingLeft=3;spacingRight=3;rotatable=0;labelPosition=right;points=[];portConstraint=eastwest;" parent="kwmT5_W4P3ap97EktbIp-59" vertex="1">
          <mxGeometry y="52" width="230" height="8" as="geometry" />
        </mxCell>
        <mxCell id="kwmT5_W4P3ap97EktbIp-62" value="+ RoleController(service)" style="text;strokeColor=none;fillColor=none;align=left;verticalAlign=top;spacingLeft=4;spacingRight=4;overflow=hidden;rotatable=0;points=[[0,0.5],[1,0.5]];portConstraint=eastwest;" parent="kwmT5_W4P3ap97EktbIp-59" vertex="1">
          <mxGeometry y="60" width="230" height="26" as="geometry" />
        </mxCell>
        <mxCell id="kwmT5_W4P3ap97EktbIp-63" value="+ updateRole(employee : Employee)" style="text;strokeColor=none;fillColor=none;align=left;verticalAlign=top;spacingLeft=4;spacingRight=4;overflow=hidden;rotatable=0;points=[[0,0.5],[1,0.5]];portConstraint=eastwest;" parent="kwmT5_W4P3ap97EktbIp-59" vertex="1">
          <mxGeometry y="86" width="230" height="26" as="geometry" />
        </mxCell>
        <mxCell id="kwmT5_W4P3ap97EktbIp-122" value="+ getRoles() : Role[*]" style="text;strokeColor=none;fillColor=none;align=left;verticalAlign=top;spacingLeft=4;spacingRight=4;overflow=hidden;rotatable=0;points=[[0,0.5],[1,0.5]];portConstraint=eastwest;" parent="kwmT5_W4P3ap97EktbIp-59" vertex="1">
          <mxGeometry y="112" width="230" height="26" as="geometry" />
        </mxCell>
        <mxCell id="kwmT5_W4P3ap97EktbIp-123" value="+ getRoleSkills() : RoleSkill[*]" style="text;strokeColor=none;fillColor=none;align=left;verticalAlign=top;spacingLeft=4;spacingRight=4;overflow=hidden;rotatable=0;points=[[0,0.5],[1,0.5]];portConstraint=eastwest;" parent="kwmT5_W4P3ap97EktbIp-59" vertex="1">
          <mxGeometry y="138" width="230" height="26" as="geometry" />
        </mxCell>
        <mxCell id="kwmT5_W4P3ap97EktbIp-98" style="edgeStyle=orthogonalEdgeStyle;rounded=0;orthogonalLoop=1;jettySize=auto;html=1;endArrow=diamondThin;endFill=1;endSize=12;startSize=12;" parent="1" source="kwmT5_W4P3ap97EktbIp-64" target="kwmT5_W4P3ap97EktbIp-83" edge="1">
          <mxGeometry relative="1" as="geometry">
            <Array as="points">
              <mxPoint x="1065" y="-1870" />
              <mxPoint x="1420" y="-1870" />
            </Array>
          </mxGeometry>
        </mxCell>
        <mxCell id="kwmT5_W4P3ap97EktbIp-99" style="edgeStyle=orthogonalEdgeStyle;rounded=0;orthogonalLoop=1;jettySize=auto;html=1;endArrow=diamondThin;endFill=1;endSize=12;startSize=12;" parent="1" source="kwmT5_W4P3ap97EktbIp-64" target="kwmT5_W4P3ap97EktbIp-91" edge="1">
          <mxGeometry relative="1" as="geometry">
            <Array as="points">
              <mxPoint x="1065" y="-1870" />
              <mxPoint x="1420" y="-1870" />
            </Array>
          </mxGeometry>
        </mxCell>
        <mxCell id="Usiv628oRZ8MBXYW6SLu-3" style="edgeStyle=orthogonalEdgeStyle;rounded=0;orthogonalLoop=1;jettySize=auto;html=1;startSize=12;endArrow=block;endFill=0;endSize=12;" edge="1" parent="1" source="kwmT5_W4P3ap97EktbIp-64" target="kwmT5_W4P3ap97EktbIp-124">
          <mxGeometry relative="1" as="geometry" />
        </mxCell>
        <mxCell id="kwmT5_W4P3ap97EktbIp-64" value="Database" style="swimlane;fontStyle=1;align=center;verticalAlign=top;childLayout=stackLayout;horizontal=1;startSize=26;horizontalStack=0;resizeParent=1;resizeParentMax=0;resizeLast=0;collapsible=1;marginBottom=0;" parent="1" vertex="1">
          <mxGeometry x="890" y="-2080" width="330" height="138" as="geometry" />
        </mxCell>
        <mxCell id="kwmT5_W4P3ap97EktbIp-65" value="- connectionString : String" style="text;strokeColor=none;fillColor=none;align=left;verticalAlign=top;spacingLeft=4;spacingRight=4;overflow=hidden;rotatable=0;points=[[0,0.5],[1,0.5]];portConstraint=eastwest;" parent="kwmT5_W4P3ap97EktbIp-64" vertex="1">
          <mxGeometry y="26" width="330" height="26" as="geometry" />
        </mxCell>
        <mxCell id="kwmT5_W4P3ap97EktbIp-66" value="- roleRepository : roleRepository" style="text;strokeColor=none;fillColor=none;align=left;verticalAlign=top;spacingLeft=4;spacingRight=4;overflow=hidden;rotatable=0;points=[[0,0.5],[1,0.5]];portConstraint=eastwest;" parent="kwmT5_W4P3ap97EktbIp-64" vertex="1">
          <mxGeometry y="52" width="330" height="26" as="geometry" />
        </mxCell>
        <mxCell id="kwmT5_W4P3ap97EktbIp-67" value="- roleSkillRepository : roleSkillRepository" style="text;strokeColor=none;fillColor=none;align=left;verticalAlign=top;spacingLeft=4;spacingRight=4;overflow=hidden;rotatable=0;points=[[0,0.5],[1,0.5]];portConstraint=eastwest;" parent="kwmT5_W4P3ap97EktbIp-64" vertex="1">
          <mxGeometry y="78" width="330" height="26" as="geometry" />
        </mxCell>
        <mxCell id="kwmT5_W4P3ap97EktbIp-68" value="" style="line;strokeWidth=1;fillColor=none;align=left;verticalAlign=middle;spacingTop=-1;spacingLeft=3;spacingRight=3;rotatable=0;labelPosition=right;points=[];portConstraint=eastwest;" parent="kwmT5_W4P3ap97EktbIp-64" vertex="1">
          <mxGeometry y="104" width="330" height="8" as="geometry" />
        </mxCell>
        <mxCell id="kwmT5_W4P3ap97EktbIp-69" value="+ Database(roleRepository, roleSkillRepository)" style="text;strokeColor=none;fillColor=none;align=left;verticalAlign=top;spacingLeft=4;spacingRight=4;overflow=hidden;rotatable=0;points=[[0,0.5],[1,0.5]];portConstraint=eastwest;" parent="kwmT5_W4P3ap97EktbIp-64" vertex="1">
          <mxGeometry y="112" width="330" height="26" as="geometry" />
        </mxCell>
        <mxCell id="Usiv628oRZ8MBXYW6SLu-4" style="edgeStyle=orthogonalEdgeStyle;rounded=0;orthogonalLoop=1;jettySize=auto;html=1;entryX=0.122;entryY=-0.012;entryDx=0;entryDy=0;entryPerimeter=0;startSize=12;endArrow=diamondThin;endFill=1;endSize=12;" edge="1" parent="1" source="kwmT5_W4P3ap97EktbIp-77" target="kwmT5_W4P3ap97EktbIp-64">
          <mxGeometry relative="1" as="geometry" />
        </mxCell>
        <mxCell id="kwmT5_W4P3ap97EktbIp-77" value="Service" style="swimlane;fontStyle=1;align=center;verticalAlign=top;childLayout=stackLayout;horizontal=1;startSize=26;horizontalStack=0;resizeParent=1;resizeParentMax=0;resizeLast=0;collapsible=1;marginBottom=0;" parent="1" vertex="1">
          <mxGeometry x="370" y="-2280" width="270" height="164" as="geometry" />
        </mxCell>
        <mxCell id="kwmT5_W4P3ap97EktbIp-78" value="- database : Database" style="text;strokeColor=none;fillColor=none;align=left;verticalAlign=top;spacingLeft=4;spacingRight=4;overflow=hidden;rotatable=0;points=[[0,0.5],[1,0.5]];portConstraint=eastwest;" parent="kwmT5_W4P3ap97EktbIp-77" vertex="1">
          <mxGeometry y="26" width="270" height="26" as="geometry" />
        </mxCell>
        <mxCell id="kwmT5_W4P3ap97EktbIp-79" value="" style="line;strokeWidth=1;fillColor=none;align=left;verticalAlign=middle;spacingTop=-1;spacingLeft=3;spacingRight=3;rotatable=0;labelPosition=right;points=[];portConstraint=eastwest;" parent="kwmT5_W4P3ap97EktbIp-77" vertex="1">
          <mxGeometry y="52" width="270" height="8" as="geometry" />
        </mxCell>
        <mxCell id="kwmT5_W4P3ap97EktbIp-80" value="+ Service(database)" style="text;strokeColor=none;fillColor=none;align=left;verticalAlign=top;spacingLeft=4;spacingRight=4;overflow=hidden;rotatable=0;points=[[0,0.5],[1,0.5]];portConstraint=eastwest;" parent="kwmT5_W4P3ap97EktbIp-77" vertex="1">
          <mxGeometry y="60" width="270" height="26" as="geometry" />
        </mxCell>
        <mxCell id="kwmT5_W4P3ap97EktbIp-81" value="+ getRoles() : Role[*]" style="text;strokeColor=none;fillColor=none;align=left;verticalAlign=top;spacingLeft=4;spacingRight=4;overflow=hidden;rotatable=0;points=[[0,0.5],[1,0.5]];portConstraint=eastwest;" parent="kwmT5_W4P3ap97EktbIp-77" vertex="1">
          <mxGeometry y="86" width="270" height="26" as="geometry" />
        </mxCell>
        <mxCell id="kwmT5_W4P3ap97EktbIp-82" value="+ getRoleSkills() : RoleSkill[*]" style="text;strokeColor=none;fillColor=none;align=left;verticalAlign=top;spacingLeft=4;spacingRight=4;overflow=hidden;rotatable=0;points=[[0,0.5],[1,0.5]];portConstraint=eastwest;" parent="kwmT5_W4P3ap97EktbIp-77" vertex="1">
          <mxGeometry y="112" width="270" height="26" as="geometry" />
        </mxCell>
        <mxCell id="kwmT5_W4P3ap97EktbIp-101" value="+ upsertEmployee(employee : Employee) : bool" style="text;strokeColor=none;fillColor=none;align=left;verticalAlign=top;spacingLeft=4;spacingRight=4;overflow=hidden;rotatable=0;points=[[0,0.5],[1,0.5]];portConstraint=eastwest;" parent="kwmT5_W4P3ap97EktbIp-77" vertex="1">
          <mxGeometry y="138" width="270" height="26" as="geometry" />
        </mxCell>
        <mxCell id="kwmT5_W4P3ap97EktbIp-83" value="RoleRepository" style="swimlane;fontStyle=1;align=center;verticalAlign=top;childLayout=stackLayout;horizontal=1;startSize=26;horizontalStack=0;resizeParent=1;resizeParentMax=0;resizeLast=0;collapsible=1;marginBottom=0;" parent="1" vertex="1">
          <mxGeometry x="1270" y="-2230" width="270" height="238" as="geometry" />
        </mxCell>
        <mxCell id="kwmT5_W4P3ap97EktbIp-84" value="- getRoleConnectionString : String" style="text;strokeColor=none;fillColor=none;align=left;verticalAlign=top;spacingLeft=4;spacingRight=4;overflow=hidden;rotatable=0;points=[[0,0.5],[1,0.5]];portConstraint=eastwest;" parent="kwmT5_W4P3ap97EktbIp-83" vertex="1">
          <mxGeometry y="26" width="270" height="22" as="geometry" />
        </mxCell>
        <mxCell id="kwmT5_W4P3ap97EktbIp-85" value="- getAllRolesrConnectionString : String" style="text;strokeColor=none;fillColor=none;align=left;verticalAlign=top;spacingLeft=4;spacingRight=4;overflow=hidden;rotatable=0;points=[[0,0.5],[1,0.5]];portConstraint=eastwest;" parent="kwmT5_W4P3ap97EktbIp-83" vertex="1">
          <mxGeometry y="48" width="270" height="26" as="geometry" />
        </mxCell>
        <mxCell id="kwmT5_W4P3ap97EktbIp-86" value="- AddRoleConnectionString : String" style="text;strokeColor=none;fillColor=none;align=left;verticalAlign=top;spacingLeft=4;spacingRight=4;overflow=hidden;rotatable=0;points=[[0,0.5],[1,0.5]];portConstraint=eastwest;" parent="kwmT5_W4P3ap97EktbIp-83" vertex="1">
          <mxGeometry y="74" width="270" height="26" as="geometry" />
        </mxCell>
        <mxCell id="kwmT5_W4P3ap97EktbIp-95" value="- DeleteRoleConnectionString : String" style="text;strokeColor=none;fillColor=none;align=left;verticalAlign=top;spacingLeft=4;spacingRight=4;overflow=hidden;rotatable=0;points=[[0,0.5],[1,0.5]];portConstraint=eastwest;" parent="kwmT5_W4P3ap97EktbIp-83" vertex="1">
          <mxGeometry y="100" width="270" height="26" as="geometry" />
        </mxCell>
        <mxCell id="kwmT5_W4P3ap97EktbIp-87" value="" style="line;strokeWidth=1;fillColor=none;align=left;verticalAlign=middle;spacingTop=-1;spacingLeft=3;spacingRight=3;rotatable=0;labelPosition=right;points=[];portConstraint=eastwest;" parent="kwmT5_W4P3ap97EktbIp-83" vertex="1">
          <mxGeometry y="126" width="270" height="8" as="geometry" />
        </mxCell>
        <mxCell id="kwmT5_W4P3ap97EktbIp-88" value="+get() : Role [*]" style="text;strokeColor=none;fillColor=none;align=left;verticalAlign=top;spacingLeft=4;spacingRight=4;overflow=hidden;rotatable=0;points=[[0,0.5],[1,0.5]];portConstraint=eastwest;" parent="kwmT5_W4P3ap97EktbIp-83" vertex="1">
          <mxGeometry y="134" width="270" height="26" as="geometry" />
        </mxCell>
        <mxCell id="kwmT5_W4P3ap97EktbIp-89" value="+ getRoleById(int) : Role" style="text;strokeColor=none;fillColor=none;align=left;verticalAlign=top;spacingLeft=4;spacingRight=4;overflow=hidden;rotatable=0;points=[[0,0.5],[1,0.5]];portConstraint=eastwest;" parent="kwmT5_W4P3ap97EktbIp-83" vertex="1">
          <mxGeometry y="160" width="270" height="26" as="geometry" />
        </mxCell>
        <mxCell id="kwmT5_W4P3ap97EktbIp-90" value="+ addRole(role : Role)" style="text;strokeColor=none;fillColor=none;align=left;verticalAlign=top;spacingLeft=4;spacingRight=4;overflow=hidden;rotatable=0;points=[[0,0.5],[1,0.5]];portConstraint=eastwest;" parent="kwmT5_W4P3ap97EktbIp-83" vertex="1">
          <mxGeometry y="186" width="270" height="26" as="geometry" />
        </mxCell>
        <mxCell id="kwmT5_W4P3ap97EktbIp-96" value="+ deleteRole(role : Role)" style="text;strokeColor=none;fillColor=none;align=left;verticalAlign=top;spacingLeft=4;spacingRight=4;overflow=hidden;rotatable=0;points=[[0,0.5],[1,0.5]];portConstraint=eastwest;" parent="kwmT5_W4P3ap97EktbIp-83" vertex="1">
          <mxGeometry y="212" width="270" height="26" as="geometry" />
        </mxCell>
        <mxCell id="kwmT5_W4P3ap97EktbIp-91" value="RoleSkillRepository" style="swimlane;fontStyle=1;align=center;verticalAlign=top;childLayout=stackLayout;horizontal=1;startSize=26;horizontalStack=0;resizeParent=1;resizeParentMax=0;resizeLast=0;collapsible=1;marginBottom=0;" parent="1" vertex="1">
          <mxGeometry x="1290" y="-1770" width="250" height="86" as="geometry" />
        </mxCell>
        <mxCell id="kwmT5_W4P3ap97EktbIp-92" value="- getRoleSkillsConnectionString : String" style="text;strokeColor=none;fillColor=none;align=left;verticalAlign=top;spacingLeft=4;spacingRight=4;overflow=hidden;rotatable=0;points=[[0,0.5],[1,0.5]];portConstraint=eastwest;" parent="kwmT5_W4P3ap97EktbIp-91" vertex="1">
          <mxGeometry y="26" width="250" height="26" as="geometry" />
        </mxCell>
        <mxCell id="kwmT5_W4P3ap97EktbIp-93" value="" style="line;strokeWidth=1;fillColor=none;align=left;verticalAlign=middle;spacingTop=-1;spacingLeft=3;spacingRight=3;rotatable=0;labelPosition=right;points=[];portConstraint=eastwest;" parent="kwmT5_W4P3ap97EktbIp-91" vertex="1">
          <mxGeometry y="52" width="250" height="8" as="geometry" />
        </mxCell>
        <mxCell id="kwmT5_W4P3ap97EktbIp-94" value="+ getRoleSkills(roleId : int) : RoleSkill[*]" style="text;strokeColor=none;fillColor=none;align=left;verticalAlign=top;spacingLeft=4;spacingRight=4;overflow=hidden;rotatable=0;points=[[0,0.5],[1,0.5]];portConstraint=eastwest;" parent="kwmT5_W4P3ap97EktbIp-91" vertex="1">
          <mxGeometry y="60" width="250" height="26" as="geometry" />
        </mxCell>
        <mxCell id="kwmT5_W4P3ap97EktbIp-103" style="edgeStyle=orthogonalEdgeStyle;rounded=0;orthogonalLoop=1;jettySize=auto;html=1;startSize=12;endArrow=none;endFill=0;endSize=12;startArrow=open;startFill=0;dashed=1;" parent="1" source="kwmT5_W4P3ap97EktbIp-77" target="kwmT5_W4P3ap97EktbIp-59" edge="1">
          <mxGeometry relative="1" as="geometry">
            <mxPoint x="750" y="-2164" as="sourcePoint" />
            <Array as="points">
              <mxPoint x="505" y="-2000" />
              <mxPoint x="285" y="-2000" />
            </Array>
          </mxGeometry>
        </mxCell>
        <mxCell id="kwmT5_W4P3ap97EktbIp-124" value="&lt;&lt;interface&gt;&gt;&#xa;IDataAccess" style="swimlane;fontStyle=1;align=center;verticalAlign=top;childLayout=stackLayout;horizontal=1;startSize=40;horizontalStack=0;resizeParent=1;resizeParentMax=0;resizeLast=0;collapsible=1;marginBottom=0;" parent="1" vertex="1">
          <mxGeometry x="950" y="-2310" width="210" height="152" as="geometry" />
        </mxCell>
        <mxCell id="kwmT5_W4P3ap97EktbIp-125" value="" style="line;strokeWidth=1;fillColor=none;align=left;verticalAlign=middle;spacingTop=-1;spacingLeft=3;spacingRight=3;rotatable=0;labelPosition=right;points=[];portConstraint=eastwest;" parent="kwmT5_W4P3ap97EktbIp-124" vertex="1">
          <mxGeometry y="40" width="210" height="8" as="geometry" />
        </mxCell>
        <mxCell id="kwmT5_W4P3ap97EktbIp-126" value="+ getUser() : User" style="text;strokeColor=none;fillColor=none;align=left;verticalAlign=top;spacingLeft=4;spacingRight=4;overflow=hidden;rotatable=0;points=[[0,0.5],[1,0.5]];portConstraint=eastwest;" parent="kwmT5_W4P3ap97EktbIp-124" vertex="1">
          <mxGeometry y="48" width="210" height="26" as="geometry" />
        </mxCell>
        <mxCell id="kwmT5_W4P3ap97EktbIp-127" value="+ getUserGroup() : Group" style="text;strokeColor=none;fillColor=none;align=left;verticalAlign=top;spacingLeft=4;spacingRight=4;overflow=hidden;rotatable=0;points=[[0,0.5],[1,0.5]];portConstraint=eastwest;" parent="kwmT5_W4P3ap97EktbIp-124" vertex="1">
          <mxGeometry y="74" width="210" height="26" as="geometry" />
        </mxCell>
        <mxCell id="kwmT5_W4P3ap97EktbIp-128" value="+ add(employee : Employee)" style="text;strokeColor=none;fillColor=none;align=left;verticalAlign=top;spacingLeft=4;spacingRight=4;overflow=hidden;rotatable=0;points=[[0,0.5],[1,0.5]];portConstraint=eastwest;" parent="kwmT5_W4P3ap97EktbIp-124" vertex="1">
          <mxGeometry y="100" width="210" height="26" as="geometry" />
        </mxCell>
        <mxCell id="kwmT5_W4P3ap97EktbIp-129" value="+ update(employee : Employee)" style="text;strokeColor=none;fillColor=none;align=left;verticalAlign=top;spacingLeft=4;spacingRight=4;overflow=hidden;rotatable=0;points=[[0,0.5],[1,0.5]];portConstraint=eastwest;" parent="kwmT5_W4P3ap97EktbIp-124" vertex="1">
          <mxGeometry y="126" width="210" height="26" as="geometry" />
        </mxCell>
        <mxCell id="Usiv628oRZ8MBXYW6SLu-14" style="edgeStyle=orthogonalEdgeStyle;rounded=0;orthogonalLoop=1;jettySize=auto;html=1;startArrow=diamondThin;startFill=1;startSize=12;endArrow=none;endFill=0;endSize=12;" edge="1" parent="1" source="kwmT5_W4P3ap97EktbIp-14" target="kwmT5_W4P3ap97EktbIp-47">
          <mxGeometry relative="1" as="geometry" />
        </mxCell>
        <mxCell id="Usiv628oRZ8MBXYW6SLu-15" value="AccountController" style="swimlane;fontStyle=1;align=center;verticalAlign=top;childLayout=stackLayout;horizontal=1;startSize=26;horizontalStack=0;resizeParent=1;resizeParentMax=0;resizeLast=0;collapsible=1;marginBottom=0;" vertex="1" parent="1">
          <mxGeometry x="560" y="-1970" width="260" height="164" as="geometry" />
        </mxCell>
        <mxCell id="Usiv628oRZ8MBXYW6SLu-16" value="- service : Service" style="text;strokeColor=none;fillColor=none;align=left;verticalAlign=top;spacingLeft=4;spacingRight=4;overflow=hidden;rotatable=0;points=[[0,0.5],[1,0.5]];portConstraint=eastwest;" vertex="1" parent="Usiv628oRZ8MBXYW6SLu-15">
          <mxGeometry y="26" width="260" height="26" as="geometry" />
        </mxCell>
        <mxCell id="Usiv628oRZ8MBXYW6SLu-17" value="" style="line;strokeWidth=1;fillColor=none;align=left;verticalAlign=middle;spacingTop=-1;spacingLeft=3;spacingRight=3;rotatable=0;labelPosition=right;points=[];portConstraint=eastwest;" vertex="1" parent="Usiv628oRZ8MBXYW6SLu-15">
          <mxGeometry y="52" width="260" height="8" as="geometry" />
        </mxCell>
        <mxCell id="Usiv628oRZ8MBXYW6SLu-18" value="+ AccountController(service :Service)" style="text;strokeColor=none;fillColor=none;align=left;verticalAlign=top;spacingLeft=4;spacingRight=4;overflow=hidden;rotatable=0;points=[[0,0.5],[1,0.5]];portConstraint=eastwest;" vertex="1" parent="Usiv628oRZ8MBXYW6SLu-15">
          <mxGeometry y="60" width="260" height="26" as="geometry" />
        </mxCell>
        <mxCell id="Usiv628oRZ8MBXYW6SLu-19" value="+ Login(user : User, userGroup : UserGroup)" style="text;strokeColor=none;fillColor=none;align=left;verticalAlign=top;spacingLeft=4;spacingRight=4;overflow=hidden;rotatable=0;points=[[0,0.5],[1,0.5]];portConstraint=eastwest;" vertex="1" parent="Usiv628oRZ8MBXYW6SLu-15">
          <mxGeometry y="86" width="260" height="26" as="geometry" />
        </mxCell>
        <mxCell id="Usiv628oRZ8MBXYW6SLu-20" value="+ getUser() : User" style="text;strokeColor=none;fillColor=none;align=left;verticalAlign=top;spacingLeft=4;spacingRight=4;overflow=hidden;rotatable=0;points=[[0,0.5],[1,0.5]];portConstraint=eastwest;" vertex="1" parent="Usiv628oRZ8MBXYW6SLu-15">
          <mxGeometry y="112" width="260" height="26" as="geometry" />
        </mxCell>
        <mxCell id="Usiv628oRZ8MBXYW6SLu-21" value="+ getUserGroup() : Group" style="text;strokeColor=none;fillColor=none;align=left;verticalAlign=top;spacingLeft=4;spacingRight=4;overflow=hidden;rotatable=0;points=[[0,0.5],[1,0.5]];portConstraint=eastwest;" vertex="1" parent="Usiv628oRZ8MBXYW6SLu-15">
          <mxGeometry y="138" width="260" height="26" as="geometry" />
        </mxCell>
        <mxCell id="Usiv628oRZ8MBXYW6SLu-23" value="«interface»&lt;br&gt;&lt;b&gt;User&lt;/b&gt;" style="html=1;" vertex="1" parent="1">
          <mxGeometry x="650" y="-1760" width="110" height="50" as="geometry" />
        </mxCell>
        <mxCell id="Usiv628oRZ8MBXYW6SLu-24" style="edgeStyle=orthogonalEdgeStyle;rounded=0;orthogonalLoop=1;jettySize=auto;html=1;startArrow=none;startFill=0;startSize=12;endArrow=block;endFill=0;endSize=12;" edge="1" parent="1" source="kwmT5_W4P3ap97EktbIp-1" target="Usiv628oRZ8MBXYW6SLu-23">
          <mxGeometry relative="1" as="geometry">
            <mxPoint x="730" y="-1684" as="sourcePoint" />
            <mxPoint x="690" y="-1806" as="targetPoint" />
          </mxGeometry>
        </mxCell>
        <mxCell id="Usiv628oRZ8MBXYW6SLu-26" style="edgeStyle=orthogonalEdgeStyle;rounded=0;orthogonalLoop=1;jettySize=auto;html=1;entryX=1;entryY=0.25;entryDx=0;entryDy=0;startArrow=none;startFill=0;startSize=12;endArrow=block;endFill=0;endSize=12;" edge="1" parent="1" source="Usiv628oRZ8MBXYW6SLu-25" target="Usiv628oRZ8MBXYW6SLu-23">
          <mxGeometry relative="1" as="geometry">
            <Array as="points">
              <mxPoint x="1065" y="-1747" />
            </Array>
          </mxGeometry>
        </mxCell>
        <mxCell id="Usiv628oRZ8MBXYW6SLu-25" value="Group" style="html=1;" vertex="1" parent="1">
          <mxGeometry x="1010" y="-1720" width="110" height="50" as="geometry" />
        </mxCell>
      </root>
    </mxGraphModel>
  </diagram>
</mxfile>
